<mxfile host="app.diagrams.net" agent="Mozilla/5.0 (Windows NT 10.0; Win64; x64) AppleWebKit/537.36 (KHTML, like Gecko) Chrome/131.0.0.0 Safari/537.36" version="25.0.1">
  <diagram name="Page-1" id="UCXbrgqJy3lLWLakS1Em">
    <mxGraphModel dx="977" dy="615" grid="1" gridSize="10" guides="1" tooltips="1" connect="1" arrows="1" fold="1" page="1" pageScale="1" pageWidth="827" pageHeight="1169" math="0" shadow="0">
      <root>
        <mxCell id="0" />
        <mxCell id="1" parent="0" />
        <mxCell id="lFK8iK2gDKezoLTWRydv-9" style="edgeStyle=orthogonalEdgeStyle;rounded=0;orthogonalLoop=1;jettySize=auto;html=1;" edge="1" parent="1" source="lFK8iK2gDKezoLTWRydv-1" target="lFK8iK2gDKezoLTWRydv-7">
          <mxGeometry relative="1" as="geometry" />
        </mxCell>
        <mxCell id="lFK8iK2gDKezoLTWRydv-10" style="edgeStyle=orthogonalEdgeStyle;rounded=0;orthogonalLoop=1;jettySize=auto;html=1;" edge="1" parent="1" source="lFK8iK2gDKezoLTWRydv-1" target="lFK8iK2gDKezoLTWRydv-5">
          <mxGeometry relative="1" as="geometry" />
        </mxCell>
        <mxCell id="lFK8iK2gDKezoLTWRydv-11" style="edgeStyle=orthogonalEdgeStyle;rounded=0;orthogonalLoop=1;jettySize=auto;html=1;" edge="1" parent="1" source="lFK8iK2gDKezoLTWRydv-1" target="lFK8iK2gDKezoLTWRydv-6">
          <mxGeometry relative="1" as="geometry" />
        </mxCell>
        <mxCell id="lFK8iK2gDKezoLTWRydv-12" style="edgeStyle=orthogonalEdgeStyle;rounded=0;orthogonalLoop=1;jettySize=auto;html=1;" edge="1" parent="1" source="lFK8iK2gDKezoLTWRydv-1" target="lFK8iK2gDKezoLTWRydv-2">
          <mxGeometry relative="1" as="geometry" />
        </mxCell>
        <mxCell id="lFK8iK2gDKezoLTWRydv-1" value="" style="image;html=1;image=img/lib/clip_art/networking/Router_Icon_128x128.png" vertex="1" parent="1">
          <mxGeometry x="300" y="480" width="80" height="80" as="geometry" />
        </mxCell>
        <mxCell id="lFK8iK2gDKezoLTWRydv-2" value="" style="image;html=1;image=img/lib/clip_art/networking/Router_Icon_128x128.png" vertex="1" parent="1">
          <mxGeometry x="400" y="70" width="80" height="80" as="geometry" />
        </mxCell>
        <mxCell id="lFK8iK2gDKezoLTWRydv-5" value="" style="image;points=[];aspect=fixed;html=1;align=center;shadow=0;dashed=0;image=img/lib/allied_telesis/security/Router_VPN.svg;" vertex="1" parent="1">
          <mxGeometry x="297.72" y="240" width="84.55" height="60" as="geometry" />
        </mxCell>
        <mxCell id="lFK8iK2gDKezoLTWRydv-6" value="" style="image;html=1;image=img/lib/clip_art/networking/Router_Icon_128x128.png" vertex="1" parent="1">
          <mxGeometry x="510" y="180" width="80" height="80" as="geometry" />
        </mxCell>
        <mxCell id="lFK8iK2gDKezoLTWRydv-7" value="" style="image;html=1;image=img/lib/clip_art/networking/Router_Icon_128x128.png" vertex="1" parent="1">
          <mxGeometry x="90" y="150" width="80" height="80" as="geometry" />
        </mxCell>
      </root>
    </mxGraphModel>
  </diagram>
</mxfile>
